<svg xmlns="http://www.w3.org/2000/svg" xmlns:xlink="http://www.w3.org/1999/xlink" width="500" zoomAndPan="magnify" viewBox="0 0 375 374.999991" height="500" preserveAspectRatio="xMidYMid meet" version="1.0"><defs><g/><clipPath id="8045366cf2"><path d="M 217.777344 173.4375 L 288.679688 173.4375 L 288.679688 244.15625 L 217.777344 244.15625 Z M 217.777344 173.4375 " clip-rule="nonzero"/></clipPath><clipPath id="ac04f9d4d6"><path d="M 190.761719 140.324219 L 240 140.324219 L 240 189 L 190.761719 189 Z M 190.761719 140.324219 " clip-rule="nonzero"/></clipPath><clipPath id="c138d2b6ee"><path d="M 86.328125 94.214844 L 222.808594 94.214844 L 222.808594 244.214844 L 86.328125 244.214844 Z M 86.328125 94.214844 " clip-rule="nonzero"/></clipPath><clipPath id="d8ef226eea"><path d="M 86.328125 94.214844 L 117.066406 94.214844 L 117.066406 244.214844 L 86.328125 244.214844 Z M 86.328125 94.214844 " clip-rule="nonzero"/></clipPath></defs><rect x="-37.5" width="450" fill="#ffffff" y="-37.499999" height="449.999989" fill-opacity="1"/><rect x="-37.5" width="450" fill="#ffffff" y="-37.499999" height="449.999989" fill-opacity="1"/><g clip-path="url(#8045366cf2)"><path fill="#14385d" d="M 253.292969 225.75 C 257.492188 225.75 261.515625 224.195312 264.628906 221.375 C 267.96875 218.34375 269.929688 214.195312 270.148438 209.695312 C 270.367188 205.191406 268.820312 200.871094 265.792969 197.53125 C 262.601562 194.007812 258.039062 191.988281 253.28125 191.988281 C 249.085938 191.988281 245.0625 193.542969 241.949219 196.363281 C 238.609375 199.394531 236.648438 203.542969 236.429688 208.046875 C 236.207031 212.550781 237.753906 216.871094 240.785156 220.210938 C 243.976562 223.730469 248.535156 225.75 253.292969 225.75 Z M 256.070312 173.585938 C 256.152344 173.59375 264.785156 175.394531 264.785156 175.394531 C 264.957031 175.433594 265.085938 175.578125 265.101562 175.753906 L 265.898438 185.15625 C 266.371094 185.40625 266.847656 185.683594 267.351562 185.996094 L 275.871094 181.921875 C 276.03125 181.847656 276.222656 181.882812 276.339844 182.011719 L 282.265625 188.546875 C 282.382812 188.675781 282.402344 188.871094 282.3125 189.019531 L 277.425781 197.101562 C 277.6875 197.636719 277.914062 198.140625 278.117188 198.632812 L 287.398438 200.34375 C 287.574219 200.375 287.707031 200.515625 287.722656 200.691406 L 288.675781 209.460938 C 288.695312 209.632812 288.597656 209.800781 288.433594 209.871094 L 279.726562 213.539062 C 279.625 214.117188 279.515625 214.65625 279.390625 215.179688 L 285.898438 222.019531 C 286.019531 222.148438 286.042969 222.339844 285.953125 222.492188 L 281.570312 230.148438 C 281.484375 230.300781 281.300781 230.375 281.132812 230.335938 L 271.933594 228.1875 C 271.734375 228.382812 271.535156 228.574219 271.328125 228.761719 C 271.121094 228.949219 270.910156 229.128906 270.695312 229.308594 L 271.941406 238.675781 C 271.964844 238.851562 271.867188 239.019531 271.707031 239.09375 L 263.664062 242.707031 C 263.503906 242.78125 263.3125 242.738281 263.199219 242.605469 L 257.019531 235.460938 C 256.492188 235.535156 255.945312 235.589844 255.359375 235.636719 L 250.859375 243.945312 C 250.773438 244.101562 250.597656 244.183594 250.425781 244.148438 L 241.792969 242.34375 C 241.621094 242.308594 241.492188 242.164062 241.476562 241.988281 L 240.679688 232.582031 C 240.210938 232.332031 239.734375 232.058594 239.226562 231.742188 L 230.707031 235.820312 C 230.546875 235.894531 230.355469 235.855469 230.238281 235.726562 L 224.3125 229.195312 C 224.195312 229.0625 224.175781 228.871094 224.265625 228.71875 L 229.152344 220.636719 C 228.890625 220.101562 228.660156 219.597656 228.460938 219.109375 L 219.175781 217.398438 C 219.003906 217.367188 218.871094 217.222656 218.851562 217.046875 L 217.898438 208.28125 C 217.882812 208.105469 217.980469 207.9375 218.140625 207.867188 L 226.851562 204.199219 C 226.953125 203.617188 227.066406 203.078125 227.1875 202.5625 L 220.679688 195.71875 C 220.558594 195.59375 220.535156 195.398438 220.621094 195.246094 L 225.003906 187.59375 C 225.09375 187.4375 225.273438 187.363281 225.441406 187.402344 L 234.644531 189.550781 C 234.84375 189.359375 235.042969 189.164062 235.25 188.976562 C 235.457031 188.789062 235.667969 188.609375 235.878906 188.433594 L 234.636719 179.066406 C 234.613281 178.890625 234.707031 178.71875 234.867188 178.648438 L 242.914062 175.03125 C 243.074219 174.957031 243.265625 175 243.378906 175.132812 L 249.554688 182.277344 C 250.082031 182.203125 250.628906 182.148438 251.21875 182.105469 L 255.71875 173.792969 C 255.789062 173.664062 255.925781 173.585938 256.070312 173.585938 " fill-opacity="1" fill-rule="nonzero"/></g><g clip-path="url(#ac04f9d4d6)"><path fill="#14385d" d="M 215.113281 174.019531 C 217.171875 173.980469 219.121094 173.289062 220.753906 172.027344 C 222.761719 170.46875 224.046875 168.222656 224.363281 165.703125 C 224.683594 163.179688 224.003906 160.6875 222.445312 158.675781 C 220.585938 156.273438 217.773438 154.933594 214.730469 154.988281 C 212.675781 155.03125 210.726562 155.71875 209.09375 156.984375 C 207.085938 158.539062 205.804688 160.785156 205.484375 163.308594 C 205.164062 165.828125 205.84375 168.324219 207.402344 170.332031 C 209.261719 172.734375 212.074219 174.078125 215.113281 174.019531 Z M 214.09375 140.375 C 214.167969 140.378906 221.675781 141.328125 221.675781 141.328125 C 221.902344 141.359375 222.085938 141.53125 222.121094 141.757812 L 223.34375 149.152344 C 223.519531 149.246094 223.695312 149.347656 223.867188 149.449219 L 230.855469 146.746094 C 231.066406 146.667969 231.3125 146.730469 231.449219 146.910156 L 236.085938 152.894531 C 236.226562 153.074219 236.230469 153.324219 236.097656 153.507812 L 231.738281 159.601562 C 231.792969 159.792969 231.84375 159.988281 231.894531 160.179688 L 238.746094 163.214844 C 238.953125 163.304688 239.078125 163.523438 239.050781 163.75 L 238.097656 171.257812 C 238.066406 171.484375 237.894531 171.664062 237.667969 171.703125 L 230.277344 172.929688 C 230.179688 173.101562 230.082031 173.277344 229.980469 173.449219 L 232.679688 180.4375 C 232.765625 180.648438 232.695312 180.890625 232.515625 181.03125 L 226.53125 185.667969 C 226.351562 185.808594 226.101562 185.8125 225.917969 185.679688 L 219.824219 181.316406 C 219.632812 181.375 219.441406 181.425781 219.246094 181.476562 L 216.214844 188.328125 C 216.121094 188.535156 215.910156 188.660156 215.679688 188.632812 L 208.167969 187.679688 C 207.941406 187.648438 207.761719 187.476562 207.726562 187.25 L 206.5 179.859375 C 206.324219 179.761719 206.152344 179.664062 205.980469 179.5625 L 198.988281 182.265625 C 198.78125 182.347656 198.535156 182.28125 198.398438 182.097656 L 193.761719 176.117188 C 193.621094 175.933594 193.617188 175.683594 193.75 175.5 L 198.109375 169.40625 C 198.054688 169.214844 198 169.023438 197.953125 168.828125 L 191.101562 165.796875 C 190.890625 165.703125 190.769531 165.484375 190.796875 165.257812 L 191.746094 157.75 C 191.777344 157.523438 191.949219 157.34375 192.175781 157.308594 L 199.570312 156.082031 C 199.667969 155.90625 199.765625 155.734375 199.867188 155.5625 L 197.164062 148.570312 C 197.082031 148.359375 197.148438 148.117188 197.328125 147.980469 L 203.3125 143.34375 C 203.492188 143.203125 203.742188 143.199219 203.925781 143.328125 L 210.023438 147.691406 C 210.214844 147.636719 210.40625 147.585938 210.601562 147.535156 L 213.632812 140.683594 C 213.714844 140.496094 213.894531 140.378906 214.09375 140.375 " fill-opacity="1" fill-rule="nonzero"/></g><g clip-path="url(#c138d2b6ee)"><path fill="#1b4167" d="M 137.640625 188.359375 L 150.855469 188.359375 L 148.804688 171.40625 L 139.691406 171.40625 L 138.070312 184.816406 L 139.691406 171.40625 Z M 205.917969 224.277344 L 205.917969 222.925781 L 203.117188 222.925781 L 200.375 225.25 L 199.964844 225.601562 L 201.125 227.214844 L 198.625 229.335938 L 205.917969 229.335938 Z M 176.679688 164.917969 C 176.558594 164.882812 176.433594 164.839844 176.3125 164.777344 C 175.480469 164.355469 175.003906 163.449219 175.027344 162.507812 L 174.539062 162.261719 L 174.214844 159.789062 L 174.21875 159.789062 L 174.214844 159.789062 L 175.058594 157.824219 L 175.351562 157.136719 L 151.222656 144.890625 L 150.722656 146.058594 L 150.71875 146.058594 L 149.75 148.308594 L 147.917969 147.378906 C 147.765625 147.738281 147.570312 148.058594 147.34375 148.347656 L 150.035156 148.347656 L 159.84375 229.335938 L 169.585938 229.335938 L 169.585938 208.71875 C 169.585938 202.226562 175.558594 196.964844 182.925781 196.964844 C 184.066406 196.964844 185.179688 197.09375 186.238281 197.332031 Z M 103.460938 124.375 C 103.726562 123.753906 103.757812 123.207031 103.542969 122.871094 C 103.328125 122.535156 102.84375 122.378906 102.214844 122.4375 L 98.765625 122.761719 C 97.644531 122.867188 96.566406 123.707031 96.074219 124.851562 C 95.914062 125.222656 95.824219 125.605469 95.8125 125.988281 C 95.667969 129.980469 95.914062 134.246094 96.542969 138.664062 C 96.617188 139.191406 96.726562 139.445312 96.792969 139.5625 C 96.886719 139.472656 97.066406 139.253906 97.28125 138.753906 Z M 109.25 108.917969 C 109.390625 108.90625 109.554688 108.710938 109.6875 108.402344 C 109.757812 108.238281 109.820312 108.042969 109.871094 107.820312 L 111.332031 101.3125 C 111.488281 100.621094 111.402344 100.039062 111.101562 99.757812 C 110.835938 99.507812 110.382812 99.503906 109.855469 99.738281 C 108.917969 100.160156 107.996094 100.664062 107.117188 101.238281 C 106.742188 101.480469 106.441406 101.847656 106.253906 102.289062 C 105.851562 103.21875 105.957031 104.386719 106.519531 105.257812 L 108.394531 108.175781 C 108.765625 108.75 109.085938 108.933594 109.25 108.917969 Z M 98.703125 111.554688 C 98.09375 112.972656 97.574219 114.519531 97.152344 116.15625 C 96.980469 116.8125 97.066406 117.40625 97.394531 117.832031 C 97.746094 118.289062 98.34375 118.515625 99.03125 118.449219 L 103.371094 118.039062 C 105.097656 117.871094 106.65625 116.941406 106.972656 116.203125 C 107.289062 115.46875 106.953125 113.570312 105.960938 112.019531 L 103.460938 108.113281 C 103.050781 107.476562 102.488281 107.113281 101.910156 107.113281 C 101.398438 107.117188 100.925781 107.417969 100.582031 107.964844 C 99.882812 109.074219 99.25 110.285156 98.703125 111.554688 Z M 180.390625 160.53125 L 180.683594 159.84375 L 176.988281 157.96875 L 176.695312 158.65625 Z M 135.671875 204.59375 L 135.371094 207.089844 L 153.125 207.089844 L 151.074219 190.140625 L 137.421875 190.140625 Z M 134.136719 225.597656 L 155.367188 225.597656 L 153.339844 208.871094 L 135.15625 208.871094 L 133.128906 225.597656 Z M 139.90625 169.621094 L 148.589844 169.621094 L 146.625 153.417969 L 146.464844 152.085938 L 142.03125 152.085938 L 139.90625 169.621094 L 141.949219 152.777344 Z M 88.4375 239.609375 L 89.378906 238.203125 C 89.21875 237.984375 89.113281 237.710938 89.113281 237.40625 C 89.113281 237.382812 89.121094 237.363281 89.121094 237.34375 L 87.597656 236.804688 C 87.558594 237 87.539062 237.199219 87.539062 237.40625 C 87.539062 238.28125 87.886719 239.0625 88.4375 239.609375 Z M 89.984375 236.183594 L 89.984375 235.976562 L 89.34375 235.976562 L 89.34375 234.609375 C 88.652344 234.882812 88.089844 235.453125 87.785156 236.179688 L 89.304688 236.714844 C 89.460938 236.453125 89.703125 236.265625 89.984375 236.183594 Z M 90.152344 239.652344 L 90.152344 238.664062 C 90.054688 238.652344 89.957031 238.628906 89.867188 238.59375 L 88.929688 240 C 89.292969 240.226562 89.710938 240.363281 90.152344 240.386719 Z M 86.328125 237.40625 C 86.328125 235.390625 87.617188 233.695312 89.34375 233.234375 L 89.34375 231.816406 L 90.21875 231.816406 L 90.21875 231.210938 L 90.542969 231.210938 L 90.542969 230.953125 L 91.316406 230.953125 L 91.316406 231.210938 L 91.640625 231.210938 L 91.640625 231.816406 L 92.644531 231.816406 L 92.644531 212.730469 L 90.828125 212.730469 L 90.828125 211.214844 L 92.644531 211.214844 L 92.644531 209.585938 L 94.78125 209.585938 L 94.78125 168.839844 L 93.855469 168.839844 L 93.855469 167.464844 L 92.730469 167.464844 L 92.730469 165.953125 L 93.855469 165.953125 L 93.855469 164.398438 L 92.730469 164.398438 L 92.730469 162.882812 L 93.855469 162.882812 L 93.855469 159.183594 L 94.867188 159.183594 L 94.867188 148.339844 L 93.976562 148.339844 L 93.890625 148.019531 C 93.667969 147.160156 88.507812 125.03125 95.085938 109.71875 C 100.976562 96.019531 112.960938 94.257812 113.082031 94.242188 L 113.269531 94.214844 L 116.652344 95.929688 L 112.878906 112.710938 L 112.851562 112.777344 L 179.8125 146.765625 L 180.148438 145.980469 L 181.785156 146.8125 L 181.449219 147.59375 L 185.140625 149.46875 L 185.480469 148.6875 L 187.117188 149.519531 L 186.78125 150.300781 L 188.113281 150.976562 L 187.691406 151.960938 L 187.613281 152.140625 L 184.441406 159.511719 L 184.382812 159.660156 L 183.652344 161.351562 L 182.320312 160.675781 L 181.753906 161.992188 L 181.183594 163.328125 L 179.226562 164.640625 L 179.117188 164.585938 L 189.050781 198.28125 C 189.472656 198.472656 189.878906 198.679688 190.269531 198.90625 C 190.707031 199.164062 191.125 199.441406 191.527344 199.738281 C 193.617188 198.359375 196.332031 198.304688 198.511719 199.851562 C 198.882812 200.113281 199.214844 200.40625 199.519531 200.730469 C 199.527344 200.738281 199.53125 200.742188 199.535156 200.75 C 199.542969 200.753906 199.546875 200.761719 199.554688 200.765625 C 201.722656 203.078125 203.363281 204.828125 204.667969 206.21875 C 205.425781 205.730469 205.972656 206.132812 205.914062 207.230469 L 205.898438 207.53125 C 208.9375 210.769531 209.820312 211.707031 212.515625 214.582031 C 213.488281 215.613281 213.6875 217.285156 212.914062 218.570312 C 212.140625 219.855469 210.65625 220.328125 209.394531 219.777344 C 207.691406 219.035156 206.546875 218.539062 205.367188 218.023438 L 205.320312 218.949219 C 205.304688 219.28125 205.230469 219.640625 205.121094 220.003906 L 217.980469 220.003906 L 217.980469 222.925781 L 208.113281 222.925781 L 208.113281 229.335938 L 222.808594 229.335938 L 222.808594 244.214844 L 118.015625 244.214844 L 118.015625 241.15625 L 123.441406 241.15625 L 123.441406 229.335938 L 128.652344 229.335938 L 138.460938 148.347656 L 141.160156 148.347656 C 140.175781 147.078125 139.898438 145.257812 140.582031 143.65625 L 138.75 142.726562 L 140.21875 139.304688 L 108.394531 123.148438 L 97.566406 148.339844 L 96.746094 148.339844 L 96.746094 159.183594 L 97.757812 159.183594 L 97.757812 162.882812 L 98.875 162.882812 L 98.875 164.398438 L 97.757812 164.398438 L 97.757812 165.953125 L 98.875 165.953125 L 98.875 167.464844 L 97.757812 167.464844 L 97.757812 168.839844 L 96.824219 168.839844 L 96.824219 209.585938 L 98.964844 209.585938 L 98.964844 211.214844 L 100.78125 211.214844 L 100.78125 212.730469 L 98.964844 212.730469 L 98.964844 231.816406 L 99.964844 231.816406 L 99.964844 231.210938 L 100.289062 231.210938 L 100.289062 230.953125 L 101.066406 230.953125 L 101.066406 231.210938 L 101.390625 231.210938 L 101.390625 231.816406 L 102.261719 231.816406 L 102.261719 235.976562 L 101.457031 235.976562 L 101.457031 244.214844 L 90.152344 244.214844 L 90.152344 241.703125 C 88.03125 241.625 86.328125 239.730469 86.328125 237.40625 " fill-opacity="1" fill-rule="nonzero"/></g><g clip-path="url(#d8ef226eea)"><path fill="#ff3131" d="M 137.640625 188.359375 L 150.855469 188.359375 L 148.804688 171.40625 L 139.691406 171.40625 L 138.070312 184.816406 L 139.691406 171.40625 Z M 205.917969 224.277344 L 205.917969 222.925781 L 203.117188 222.925781 L 200.375 225.25 L 199.964844 225.601562 L 201.125 227.214844 L 198.625 229.335938 L 205.917969 229.335938 Z M 176.679688 164.917969 C 176.558594 164.882812 176.433594 164.839844 176.3125 164.777344 C 175.480469 164.355469 175.003906 163.449219 175.027344 162.507812 L 174.539062 162.261719 L 174.214844 159.789062 L 174.21875 159.789062 L 174.214844 159.789062 L 175.058594 157.824219 L 175.351562 157.136719 L 151.222656 144.890625 L 150.722656 146.058594 L 150.71875 146.058594 L 149.75 148.308594 L 147.917969 147.378906 C 147.765625 147.738281 147.570312 148.058594 147.34375 148.347656 L 150.035156 148.347656 L 159.84375 229.335938 L 169.585938 229.335938 L 169.585938 208.71875 C 169.585938 202.226562 175.558594 196.964844 182.925781 196.964844 C 184.066406 196.964844 185.179688 197.09375 186.238281 197.332031 Z M 103.460938 124.375 C 103.726562 123.753906 103.757812 123.207031 103.542969 122.871094 C 103.328125 122.535156 102.84375 122.378906 102.214844 122.4375 L 98.765625 122.761719 C 97.644531 122.867188 96.566406 123.707031 96.074219 124.851562 C 95.914062 125.222656 95.824219 125.605469 95.8125 125.988281 C 95.667969 129.980469 95.914062 134.246094 96.542969 138.664062 C 96.617188 139.191406 96.726562 139.445312 96.792969 139.5625 C 96.886719 139.472656 97.066406 139.253906 97.28125 138.753906 Z M 109.25 108.917969 C 109.390625 108.90625 109.554688 108.710938 109.6875 108.402344 C 109.757812 108.238281 109.820312 108.042969 109.871094 107.820312 L 111.332031 101.3125 C 111.488281 100.621094 111.402344 100.039062 111.101562 99.757812 C 110.835938 99.507812 110.382812 99.503906 109.855469 99.738281 C 108.917969 100.160156 107.996094 100.664062 107.117188 101.238281 C 106.742188 101.480469 106.441406 101.847656 106.253906 102.289062 C 105.851562 103.21875 105.957031 104.386719 106.519531 105.257812 L 108.394531 108.175781 C 108.765625 108.75 109.085938 108.933594 109.25 108.917969 Z M 98.703125 111.554688 C 98.09375 112.972656 97.574219 114.519531 97.152344 116.15625 C 96.980469 116.8125 97.066406 117.40625 97.394531 117.832031 C 97.746094 118.289062 98.34375 118.515625 99.03125 118.449219 L 103.371094 118.039062 C 105.097656 117.871094 106.65625 116.941406 106.972656 116.203125 C 107.289062 115.46875 106.953125 113.570312 105.960938 112.019531 L 103.460938 108.113281 C 103.050781 107.476562 102.488281 107.113281 101.910156 107.113281 C 101.398438 107.117188 100.925781 107.417969 100.582031 107.964844 C 99.882812 109.074219 99.25 110.285156 98.703125 111.554688 Z M 180.390625 160.53125 L 180.683594 159.84375 L 176.988281 157.96875 L 176.695312 158.65625 Z M 135.671875 204.59375 L 135.371094 207.089844 L 153.125 207.089844 L 151.074219 190.140625 L 137.421875 190.140625 Z M 134.136719 225.597656 L 155.367188 225.597656 L 153.339844 208.871094 L 135.15625 208.871094 L 133.128906 225.597656 Z M 139.90625 169.621094 L 148.589844 169.621094 L 146.625 153.417969 L 146.464844 152.085938 L 142.03125 152.085938 L 139.90625 169.621094 L 141.949219 152.777344 Z M 88.4375 239.609375 L 89.378906 238.203125 C 89.21875 237.984375 89.113281 237.710938 89.113281 237.40625 C 89.113281 237.382812 89.121094 237.363281 89.121094 237.34375 L 87.597656 236.804688 C 87.558594 237 87.539062 237.199219 87.539062 237.40625 C 87.539062 238.28125 87.886719 239.0625 88.4375 239.609375 Z M 89.984375 236.183594 L 89.984375 235.976562 L 89.34375 235.976562 L 89.34375 234.609375 C 88.652344 234.882812 88.089844 235.453125 87.785156 236.179688 L 89.304688 236.714844 C 89.460938 236.453125 89.703125 236.265625 89.984375 236.183594 Z M 90.152344 239.652344 L 90.152344 238.664062 C 90.054688 238.652344 89.957031 238.628906 89.867188 238.59375 L 88.929688 240 C 89.292969 240.226562 89.710938 240.363281 90.152344 240.386719 Z M 86.328125 237.40625 C 86.328125 235.390625 87.617188 233.695312 89.34375 233.234375 L 89.34375 231.816406 L 90.21875 231.816406 L 90.21875 231.210938 L 90.542969 231.210938 L 90.542969 230.953125 L 91.316406 230.953125 L 91.316406 231.210938 L 91.640625 231.210938 L 91.640625 231.816406 L 92.644531 231.816406 L 92.644531 212.730469 L 90.828125 212.730469 L 90.828125 211.214844 L 92.644531 211.214844 L 92.644531 209.585938 L 94.78125 209.585938 L 94.78125 168.839844 L 93.855469 168.839844 L 93.855469 167.464844 L 92.730469 167.464844 L 92.730469 165.953125 L 93.855469 165.953125 L 93.855469 164.398438 L 92.730469 164.398438 L 92.730469 162.882812 L 93.855469 162.882812 L 93.855469 159.183594 L 94.867188 159.183594 L 94.867188 148.339844 L 93.976562 148.339844 L 93.890625 148.019531 C 93.667969 147.160156 88.507812 125.03125 95.085938 109.71875 C 100.976562 96.019531 112.960938 94.257812 113.082031 94.242188 L 113.269531 94.214844 L 116.652344 95.929688 L 112.878906 112.710938 L 112.851562 112.777344 L 179.8125 146.765625 L 180.148438 145.980469 L 181.785156 146.8125 L 181.449219 147.59375 L 185.140625 149.46875 L 185.480469 148.6875 L 187.117188 149.519531 L 186.78125 150.300781 L 188.113281 150.976562 L 187.691406 151.960938 L 187.613281 152.140625 L 184.441406 159.511719 L 184.382812 159.660156 L 183.652344 161.351562 L 182.320312 160.675781 L 181.753906 161.992188 L 181.183594 163.328125 L 179.226562 164.640625 L 179.117188 164.585938 L 189.050781 198.28125 C 189.472656 198.472656 189.878906 198.679688 190.269531 198.90625 C 190.707031 199.164062 191.125 199.441406 191.527344 199.738281 C 193.617188 198.359375 196.332031 198.304688 198.511719 199.851562 C 198.882812 200.113281 199.214844 200.40625 199.519531 200.730469 C 199.527344 200.738281 199.53125 200.742188 199.535156 200.75 C 199.542969 200.753906 199.546875 200.761719 199.554688 200.765625 C 201.722656 203.078125 203.363281 204.828125 204.667969 206.21875 C 205.425781 205.730469 205.972656 206.132812 205.914062 207.230469 L 205.898438 207.53125 C 208.9375 210.769531 209.820312 211.707031 212.515625 214.582031 C 213.488281 215.613281 213.6875 217.285156 212.914062 218.570312 C 212.140625 219.855469 210.65625 220.328125 209.394531 219.777344 C 207.691406 219.035156 206.546875 218.539062 205.367188 218.023438 L 205.320312 218.949219 C 205.304688 219.28125 205.230469 219.640625 205.121094 220.003906 L 217.980469 220.003906 L 217.980469 222.925781 L 208.113281 222.925781 L 208.113281 229.335938 L 222.808594 229.335938 L 222.808594 244.214844 L 118.015625 244.214844 L 118.015625 241.15625 L 123.441406 241.15625 L 123.441406 229.335938 L 128.652344 229.335938 L 138.460938 148.347656 L 141.160156 148.347656 C 140.175781 147.078125 139.898438 145.257812 140.582031 143.65625 L 138.75 142.726562 L 140.21875 139.304688 L 108.394531 123.148438 L 97.566406 148.339844 L 96.746094 148.339844 L 96.746094 159.183594 L 97.757812 159.183594 L 97.757812 162.882812 L 98.875 162.882812 L 98.875 164.398438 L 97.757812 164.398438 L 97.757812 165.953125 L 98.875 165.953125 L 98.875 167.464844 L 97.757812 167.464844 L 97.757812 168.839844 L 96.824219 168.839844 L 96.824219 209.585938 L 98.964844 209.585938 L 98.964844 211.214844 L 100.78125 211.214844 L 100.78125 212.730469 L 98.964844 212.730469 L 98.964844 231.816406 L 99.964844 231.816406 L 99.964844 231.210938 L 100.289062 231.210938 L 100.289062 230.953125 L 101.066406 230.953125 L 101.066406 231.210938 L 101.390625 231.210938 L 101.390625 231.816406 L 102.261719 231.816406 L 102.261719 235.976562 L 101.457031 235.976562 L 101.457031 244.214844 L 90.152344 244.214844 L 90.152344 241.703125 C 88.03125 241.625 86.328125 239.730469 86.328125 237.40625 " fill-opacity="1" fill-rule="nonzero"/></g><g fill="#1d5186" fill-opacity="1"><g transform="translate(101.201585, 273.734161)"><g><path d="M 8.453125 0.328125 C 6.953125 0.328125 5.503906 0.125 4.109375 -0.28125 C 2.722656 -0.6875 1.601562 -1.210938 0.75 -1.859375 L 2.234375 -5.15625 C 3.046875 -4.5625 4.007812 -4.082031 5.125 -3.71875 C 6.238281 -3.363281 7.359375 -3.1875 8.484375 -3.1875 C 9.722656 -3.1875 10.640625 -3.367188 11.234375 -3.734375 C 11.828125 -4.109375 12.125 -4.601562 12.125 -5.21875 C 12.125 -5.664062 11.945312 -6.035156 11.59375 -6.328125 C 11.238281 -6.628906 10.785156 -6.867188 10.234375 -7.046875 C 9.691406 -7.222656 8.953125 -7.421875 8.015625 -7.640625 C 6.578125 -7.984375 5.398438 -8.328125 4.484375 -8.671875 C 3.566406 -9.015625 2.78125 -9.5625 2.125 -10.3125 C 1.46875 -11.070312 1.140625 -12.082031 1.140625 -13.34375 C 1.140625 -14.4375 1.4375 -15.425781 2.03125 -16.3125 C 2.625 -17.207031 3.515625 -17.914062 4.703125 -18.4375 C 5.898438 -18.957031 7.363281 -19.21875 9.09375 -19.21875 C 10.300781 -19.21875 11.476562 -19.070312 12.625 -18.78125 C 13.78125 -18.5 14.789062 -18.085938 15.65625 -17.546875 L 14.3125 -14.234375 C 12.5625 -15.222656 10.816406 -15.71875 9.078125 -15.71875 C 7.847656 -15.71875 6.941406 -15.519531 6.359375 -15.125 C 5.773438 -14.726562 5.484375 -14.203125 5.484375 -13.546875 C 5.484375 -12.898438 5.816406 -12.421875 6.484375 -12.109375 C 7.160156 -11.796875 8.191406 -11.484375 9.578125 -11.171875 C 11.023438 -10.835938 12.207031 -10.5 13.125 -10.15625 C 14.039062 -9.8125 14.828125 -9.269531 15.484375 -8.53125 C 16.140625 -7.789062 16.46875 -6.789062 16.46875 -5.53125 C 16.46875 -4.457031 16.164062 -3.472656 15.5625 -2.578125 C 14.957031 -1.679688 14.050781 -0.972656 12.84375 -0.453125 C 11.644531 0.0664062 10.179688 0.328125 8.453125 0.328125 Z M 8.453125 0.328125 "/></g></g></g><g fill="#1d5186" fill-opacity="1"><g transform="translate(123.422585, 273.734161)"><g><path d="M 16.875 -3.515625 L 16.875 0 L 2.234375 0 L 2.234375 -18.90625 L 16.53125 -18.90625 L 16.53125 -15.390625 L 6.59375 -15.390625 L 6.59375 -11.28125 L 15.359375 -11.28125 L 15.359375 -7.890625 L 6.59375 -7.890625 L 6.59375 -3.515625 Z M 16.875 -3.515625 "/></g></g></g><g fill="#1d5186" fill-opacity="1"><g transform="translate(146.534588, 273.734161)"><g><path d="M 14.28125 0 L 10.640625 -5.265625 L 6.609375 -5.265625 L 6.609375 0 L 2.234375 0 L 2.234375 -18.90625 L 10.421875 -18.90625 C 12.097656 -18.90625 13.550781 -18.625 14.78125 -18.0625 C 16.007812 -17.5 16.957031 -16.703125 17.625 -15.671875 C 18.289062 -14.648438 18.625 -13.441406 18.625 -12.046875 C 18.625 -10.640625 18.285156 -9.425781 17.609375 -8.40625 C 16.941406 -7.394531 15.984375 -6.617188 14.734375 -6.078125 L 18.984375 0 Z M 14.203125 -12.046875 C 14.203125 -13.109375 13.859375 -13.921875 13.171875 -14.484375 C 12.492188 -15.054688 11.492188 -15.34375 10.171875 -15.34375 L 6.609375 -15.34375 L 6.609375 -8.75 L 10.171875 -8.75 C 11.492188 -8.75 12.492188 -9.035156 13.171875 -9.609375 C 13.859375 -10.179688 14.203125 -10.992188 14.203125 -12.046875 Z M 14.203125 -12.046875 "/></g></g></g><g fill="#1d5186" fill-opacity="1"><g transform="translate(171.374588, 273.734161)"><g><path d="M 20.40625 -18.90625 L 12.234375 0 L 7.90625 0 L -0.25 -18.90625 L 4.484375 -18.90625 L 10.234375 -5.40625 L 16.0625 -18.90625 Z M 20.40625 -18.90625 "/></g></g></g><g fill="#1d5186" fill-opacity="1"><g transform="translate(196.511591, 273.734161)"><g><path d="M 2.234375 -18.90625 L 6.609375 -18.90625 L 6.609375 0 L 2.234375 0 Z M 4.4375 -20.578125 C 3.769531 -20.578125 3.222656 -20.789062 2.796875 -21.21875 C 2.367188 -21.65625 2.15625 -22.207031 2.15625 -22.875 C 2.15625 -23.519531 2.367188 -24.054688 2.796875 -24.484375 C 3.222656 -24.921875 3.769531 -25.140625 4.4375 -25.140625 C 5.101562 -25.140625 5.644531 -24.921875 6.0625 -24.484375 C 6.488281 -24.054688 6.703125 -23.519531 6.703125 -22.875 C 6.703125 -22.207031 6.488281 -21.65625 6.0625 -21.21875 C 5.644531 -20.789062 5.101562 -20.578125 4.4375 -20.578125 Z M 4.4375 -20.578125 "/></g></g></g><g fill="#1d5186" fill-opacity="1"><g transform="translate(210.362592, 273.734161)"><g><path d="M 8.453125 0.328125 C 6.953125 0.328125 5.503906 0.125 4.109375 -0.28125 C 2.722656 -0.6875 1.601562 -1.210938 0.75 -1.859375 L 2.234375 -5.15625 C 3.046875 -4.5625 4.007812 -4.082031 5.125 -3.71875 C 6.238281 -3.363281 7.359375 -3.1875 8.484375 -3.1875 C 9.722656 -3.1875 10.640625 -3.367188 11.234375 -3.734375 C 11.828125 -4.109375 12.125 -4.601562 12.125 -5.21875 C 12.125 -5.664062 11.945312 -6.035156 11.59375 -6.328125 C 11.238281 -6.628906 10.785156 -6.867188 10.234375 -7.046875 C 9.691406 -7.222656 8.953125 -7.421875 8.015625 -7.640625 C 6.578125 -7.984375 5.398438 -8.328125 4.484375 -8.671875 C 3.566406 -9.015625 2.78125 -9.5625 2.125 -10.3125 C 1.46875 -11.070312 1.140625 -12.082031 1.140625 -13.34375 C 1.140625 -14.4375 1.4375 -15.425781 2.03125 -16.3125 C 2.625 -17.207031 3.515625 -17.914062 4.703125 -18.4375 C 5.898438 -18.957031 7.363281 -19.21875 9.09375 -19.21875 C 10.300781 -19.21875 11.476562 -19.070312 12.625 -18.78125 C 13.78125 -18.5 14.789062 -18.085938 15.65625 -17.546875 L 14.3125 -14.234375 C 12.5625 -15.222656 10.816406 -15.71875 9.078125 -15.71875 C 7.847656 -15.71875 6.941406 -15.519531 6.359375 -15.125 C 5.773438 -14.726562 5.484375 -14.203125 5.484375 -13.546875 C 5.484375 -12.898438 5.816406 -12.421875 6.484375 -12.109375 C 7.160156 -11.796875 8.191406 -11.484375 9.578125 -11.171875 C 11.023438 -10.835938 12.207031 -10.5 13.125 -10.15625 C 14.039062 -9.8125 14.828125 -9.269531 15.484375 -8.53125 C 16.140625 -7.789062 16.46875 -6.789062 16.46875 -5.53125 C 16.46875 -4.457031 16.164062 -3.472656 15.5625 -2.578125 C 14.957031 -1.679688 14.050781 -0.972656 12.84375 -0.453125 C 11.644531 0.0664062 10.179688 0.328125 8.453125 0.328125 Z M 8.453125 0.328125 "/></g></g></g><g fill="#1d5186" fill-opacity="1"><g transform="translate(232.583595, 273.734161)"><g><path d="M 1.40625 -9.28125 L 9.046875 -9.28125 L 9.046875 -5.90625 L 1.40625 -5.90625 Z M 1.40625 -9.28125 "/></g></g></g><g fill="#ff3131" fill-opacity="1"><g transform="translate(248.002356, 273.734161)"><g><path d="M 19.4375 0 L 19.40625 -11.34375 L 13.84375 -2 L 11.875 -2 L 6.34375 -11.09375 L 6.34375 0 L 2.234375 0 L 2.234375 -18.90625 L 5.859375 -18.90625 L 12.9375 -7.15625 L 19.90625 -18.90625 L 23.484375 -18.90625 L 23.546875 0 Z M 19.4375 0 "/></g></g></g></svg>